<svg width="71" height="65" viewBox="0 0 71 65" fill="none" xmlns="http://www.w3.org/2000/svg">
<path id="Vector" d="M35.5 5C34.155 5 32.865 5.52678 31.914 6.46447C30.9629 7.40215 30.4286 8.67392 30.4286 10C30.4286 11.3261 30.9629 12.5979 31.914 13.5355C32.865 14.4732 34.155 15 35.5 15C36.845 15 38.135 14.4732 39.086 13.5355C40.0371 12.5979 40.5714 11.3261 40.5714 10C40.5714 8.67392 40.0371 7.40215 39.086 6.46447C38.135 5.52678 36.845 5 35.5 5ZM25.3571 10C25.3571 7.34784 26.4258 4.8043 28.3279 2.92893C30.2301 1.05357 32.8099 0 35.5 0C38.1901 0 40.7699 1.05357 42.6721 2.92893C44.5742 4.8043 45.6429 7.34784 45.6429 10C45.6429 12.6522 44.5742 15.1957 42.6721 17.0711C40.7699 18.9464 38.1901 20 35.5 20C32.8099 20 30.2301 18.9464 28.3279 17.0711C26.4258 15.1957 25.3571 12.6522 25.3571 10ZM59.5893 7.5C58.5805 7.5 57.6131 7.89509 56.8998 8.59835C56.1865 9.30161 55.7857 10.2554 55.7857 11.25C55.7857 12.2446 56.1865 13.1984 56.8998 13.9017C57.6131 14.6049 58.5805 15 59.5893 15C60.5981 15 61.5655 14.6049 62.2788 13.9017C62.9921 13.1984 63.3929 12.2446 63.3929 11.25C63.3929 10.2554 62.9921 9.30161 62.2788 8.59835C61.5655 7.89509 60.5981 7.5 59.5893 7.5ZM50.7143 11.25C50.7143 10.1009 50.9438 8.96312 51.3899 7.90152C51.8359 6.83992 52.4896 5.87533 53.3137 5.06281C54.1378 4.2503 55.1162 3.60578 56.193 3.16605C57.2697 2.72632 58.4238 2.5 59.5893 2.5C60.7548 2.5 61.9088 2.72632 62.9856 3.16605C64.0624 3.60578 65.0407 4.2503 65.8649 5.06281C66.689 5.87533 67.3427 6.83992 67.7887 7.90152C68.2347 8.96312 68.4643 10.1009 68.4643 11.25C68.4643 13.5706 67.5293 15.7962 65.8649 17.4372C64.2005 19.0781 61.9431 20 59.5893 20C57.2355 20 54.9781 19.0781 53.3137 17.4372C51.6493 15.7962 50.7143 13.5706 50.7143 11.25ZM7.60714 11.25C7.60714 10.2554 8.00788 9.30161 8.72118 8.59835C9.43449 7.89509 10.4019 7.5 11.4107 7.5C12.4195 7.5 13.3869 7.89509 14.1002 8.59835C14.8136 9.30161 15.2143 10.2554 15.2143 11.25C15.2143 12.2446 14.8136 13.1984 14.1002 13.9017C13.3869 14.6049 12.4195 15 11.4107 15C10.4019 15 9.43449 14.6049 8.72118 13.9017C8.00788 13.1984 7.60714 12.2446 7.60714 11.25ZM11.4107 2.5C9.05692 2.5 6.79953 3.42187 5.13514 5.06282C3.47076 6.70376 2.53572 8.92936 2.53572 11.25C2.53572 13.5706 3.47076 15.7962 5.13514 17.4372C6.79953 19.0781 9.05692 20 11.4107 20C13.7645 20 16.0219 19.0781 17.6863 17.4372C19.3507 15.7962 20.2857 13.5706 20.2857 11.25C20.2857 8.92936 19.3507 6.70376 17.6863 5.06282C16.0219 3.42187 13.7645 2.5 11.4107 2.5ZM16.865 53.7625C15.7182 54.5078 14.3881 54.933 13.0159 54.993C11.6437 55.0531 10.2806 54.7457 9.07134 54.1036C7.86204 53.4614 6.85165 52.5085 6.14741 51.3458C5.44317 50.1832 5.07135 48.8542 5.07143 47.5V31.25C5.07143 30.9185 5.20501 30.6005 5.44278 30.3661C5.68055 30.1317 6.00303 30 6.33929 30H16.5608C16.792 28.1695 17.5347 26.4385 18.706 25H6.33929C4.658 25 3.04558 25.6585 1.85673 26.8306C0.667888 28.0027 5.68996e-07 29.5924 5.68996e-07 31.25V47.5C-0.000653485 49.6527 0.562573 51.769 1.63512 53.6441C2.70768 55.5191 4.2532 57.0893 6.12199 58.2025C7.99078 59.3157 10.1195 59.9343 12.302 59.9982C14.4844 60.0622 16.6466 59.5694 18.5792 58.5675C17.7872 57.0508 17.2104 55.434 16.865 53.7625ZM52.4208 58.5675C54.3534 59.5694 56.5156 60.0622 58.698 59.9982C60.8805 59.9343 63.0092 59.3157 64.878 58.2025C66.7468 57.0893 68.2923 55.5191 69.3649 53.6441C70.4374 51.769 71.0007 49.6527 71 47.5V31.25C71 29.5924 70.3321 28.0027 69.1433 26.8306C67.9544 25.6585 66.342 25 64.6607 25H52.294C53.4642 26.4391 54.2068 28.1698 54.4393 30H64.6607C64.997 30 65.3195 30.1317 65.5572 30.3661C65.795 30.6005 65.9286 30.9185 65.9286 31.25V47.5C65.9286 48.8542 65.5568 50.1832 64.8526 51.3458C64.1484 52.5085 63.138 53.4614 61.9287 54.1036C60.7194 54.7457 59.3563 55.0531 57.9841 54.993C56.6119 54.933 55.2818 54.5078 54.135 53.7625C53.7896 55.434 53.2128 57.0508 52.4208 58.5675ZM26.625 25C24.9437 25 23.3313 25.6585 22.1424 26.8306C20.9536 28.0027 20.2857 29.5924 20.2857 31.25V50C20.2857 53.9782 21.8886 57.7936 24.7419 60.6066C27.5951 63.4197 31.4649 65 35.5 65C39.5351 65 43.4049 63.4197 46.2581 60.6066C49.1114 57.7936 50.7143 53.9782 50.7143 50V31.25C50.7143 29.5924 50.0464 28.0027 48.8576 26.8306C47.6687 25.6585 46.0563 25 44.375 25H26.625ZM25.3571 31.25C25.3571 30.9185 25.4907 30.6005 25.7285 30.3661C25.9663 30.1317 26.2887 30 26.625 30H44.375C44.7113 30 45.0337 30.1317 45.2715 30.3661C45.5093 30.6005 45.6429 30.9185 45.6429 31.25V50C45.6429 52.6522 44.5742 55.1957 42.6721 57.0711C40.7699 58.9464 38.1901 60 35.5 60C32.8099 60 30.2301 58.9464 28.3279 57.0711C26.4258 55.1957 25.3571 52.6522 25.3571 50V31.25Z" fill="black"/>
</svg>
